# 3ds Max Wavefront OBJ Exporter v0.94b - (c)2007 guruware
# File Created: 18.08.2022 08:24:00

mtllib Grass 2 N180822.mtl

#
# object VRayPlane01
#

#
# object Grass_2
#

v  -0.1204 5.1224 -1.0230
v  0.1712 5.0892 -1.1311
v  0.0840 5.0785 -1.2472
v  0.0419 4.3321 -0.0183
v  -0.4423 4.2687 0.0829
v  -0.1063 -0.0771 0.9507
v  -0.4448 2.1558 0.8399
v  -0.3266 -0.0421 0.9491
v  0.2474 -0.1280 0.9536
v  0.1410 2.3168 0.8146
v  -0.4447 3.2896 0.5719
# 11 vertices

vn 0.2242 0.8600 0.4584
vn 0.1915 0.9558 0.2230
vn 0.0616 0.9886 -0.1374
vn 0.1093 0.6515 0.7507
vn 0.0906 0.5893 0.8028
vn 0.0025 0.0536 0.9986
vn 0.0067 0.1284 0.9917
vn 0.0004 0.0496 0.9988
vn 0.0001 0.0568 0.9984
vn 0.0444 0.1813 0.9824
vn 0.1993 0.3651 0.9094
# 11 vertex normals

vt 0.0234 0.4811 0.0000
vt 0.0138 0.8693 0.0000
vt 0.0000 0.7511 0.0000
vt 0.2554 0.7119 0.0000
vt 0.2752 0.0665 0.0000
vt 0.9925 0.5274 0.0000
vt 0.6539 0.0735 0.0000
vt 0.9874 0.2330 0.0000
vt 1.0000 1.0000 0.0000
vt 0.6277 0.8560 0.0000
vt 0.4646 0.0700 0.0000
# 11 texture coords

g Grass_2
usemtl Grass
s 1
f 1/1/1 2/2/2 3/3/3 
f 4/4/4 1/1/1 5/5/5 
f 4/4/4 2/2/2 1/1/1 
f 6/6/6 7/7/7 8/8/8 
f 9/9/9 10/10/10 6/6/6 
f 10/10/10 4/4/4 11/11/11 
f 6/6/6 10/10/10 7/7/7 
f 11/11/11 4/4/4 5/5/5 
f 10/10/10 11/11/11 7/7/7 
# 0 polygons - 9 triangles

